<svg xmlns="http://www.w3.org/2000/svg"
     width="24"
     height="24"
     viewBox="0 0 24 24"
     fill="currentColor">
    <path d="M19.3045 5.3514C21.6762 8.83845 22.8474 12.7717 22.4096 17.2999C22.4077 17.319 22.3978 17.3366 22.382 17.3482C20.586 18.667 18.8459 19.4673 17.1302 19.9981C17.1168 20.0021 17.1025 20.0019 17.0893 19.9975C17.0761 19.993 17.0646 19.9845 17.0564 19.9732C16.6601 19.4216 16.2999 18.8402 15.9844 18.2296C15.9663 18.1937 15.9828 18.1504 16.0201 18.1362C16.5921 17.9207 17.136 17.6624 17.6591 17.3566C17.7003 17.3324 17.703 17.2733 17.6649 17.245C17.5539 17.1626 17.4439 17.0759 17.3386 16.9893C17.3189 16.9733 17.2924 16.9702 17.2701 16.9809C13.8736 18.5494 10.153 18.5494 6.71631 16.9809C6.694 16.9709 6.66749 16.9744 6.64833 16.9901C6.54333 17.0767 6.43308 17.1626 6.32309 17.245C6.28503 17.2733 6.28818 17.3324 6.32965 17.3566C6.85281 17.6566 7.39671 17.9207 7.96791 18.1372C8.00492 18.1514 8.02251 18.1937 8.00414 18.2296C7.69544 18.841 7.33529 19.4224 6.93156 19.9739C6.91398 19.9963 6.8851 20.0065 6.8578 19.9981C5.15024 19.4673 3.41013 18.667 1.61411 17.3482C1.59915 17.3366 1.58838 17.3182 1.58681 17.2991C1.22088 13.3823 1.96665 9.41647 4.68903 5.35062C4.69559 5.33985 4.70557 5.33145 4.71712 5.32647C6.05665 4.71169 7.49174 4.25941 8.99166 4.00111C9.01896 3.99691 9.04626 4.00951 9.06043 4.03366C9.24576 4.36178 9.4576 4.78257 9.60092 5.12644C11.182 4.88494 12.7877 4.88494 14.4018 5.12644C14.5451 4.78992 14.7496 4.36178 14.9341 4.03366C14.9407 4.02168 14.9509 4.01208 14.9632 4.00623C14.9756 4.00039 14.9895 3.99859 15.0029 4.00111C16.5036 4.26019 17.9387 4.71248 19.2772 5.32647C19.289 5.33145 19.2987 5.33985 19.3045 5.3514ZM10.4047 12.7985C10.4212 11.6406 9.57703 10.6825 8.51732 10.6825C7.46627 10.6825 6.63021 11.6322 6.63021 12.7985C6.63021 13.9645 7.48281 14.9143 8.51732 14.9143C9.56863 14.9143 10.4047 13.9645 10.4047 12.7985ZM17.3825 12.7985C17.399 11.6406 16.5548 10.6825 15.4953 10.6825C14.444 10.6825 13.608 11.6322 13.608 12.7985C13.608 13.9645 14.4606 14.9143 15.4953 14.9143C16.5548 14.9143 17.3825 13.9645 17.3825 12.7985Z"/>
</svg>
