<svg xmlns="http://www.w3.org/2000/svg"
     width="100%"
     height="100%"
     viewBox="0 0 24 24"
     fill="none">
    <path d="M23 12C23 18.0751 18.0751 23 12 23C5.92487 23 1 18.0751 1 12C1 5.92487 5.92487 1 12 1C18.0751 1 23 5.92487 23 12Z" fill="#EECF7D"/>
    <path d="M12 3.20859C10.2612 3.20859 8.5615 3.7242 7.11576 4.69021C5.67002 5.65623 4.5432 7.02926 3.8778 8.63567C3.2124 10.2421 3.0383 12.0098 3.37752 13.7151C3.71674 15.4205 4.55404 16.987 5.78354 18.2165C7.01304 19.446 8.57952 20.2833 10.2849 20.6225C11.9902 20.9617 13.7579 20.7876 15.3643 20.1222C16.9707 19.4568 18.3438 18.33 19.3098 16.8842C20.2758 15.4385 20.7914 13.7388 20.7914 12C20.7887 9.66921 19.8616 7.43467 18.2134 5.78655C16.5653 4.13843 14.3308 3.21132 12 3.20859ZM12 19.9286C10.4319 19.9286 8.89896 19.4636 7.59511 18.5924C6.29126 17.7212 5.27503 16.4829 4.67493 15.0341C4.07484 13.5854 3.91783 11.9912 4.22375 10.4532C4.52968 8.91521 5.2848 7.50247 6.39364 6.39364C7.50247 5.2848 8.91521 4.52968 10.4532 4.22375C11.9912 3.91783 13.5854 4.07484 15.0341 4.67493C16.4829 5.27503 17.7212 6.29126 18.5924 7.59511C19.4636 8.89896 19.9286 10.4319 19.9286 12C19.9263 14.1021 19.0903 16.1174 17.6038 17.6038C16.1174 19.0903 14.1021 19.9263 12 19.9286Z" fill="black"/>
    <path d="M16.1662 9.34625C16.2736 9.33664 16.3734 9.28721 16.4461 9.20769C16.5189 9.12817 16.5592 9.02432 16.5592 8.91656C16.5592 8.80881 16.5189 8.70495 16.4461 8.62543C16.3734 8.54591 16.2736 8.49648 16.1662 8.48688H13.6809V6.32812C13.6863 6.26847 13.6791 6.20835 13.66 6.1516C13.6408 6.09486 13.61 6.04272 13.5696 5.99852C13.5292 5.95432 13.48 5.91902 13.4252 5.89487C13.3704 5.87072 13.3111 5.85825 13.2512 5.85825C13.1914 5.85825 13.1321 5.87072 13.0773 5.89487C13.0225 5.91902 12.9733 5.95432 12.9329 5.99852C12.8925 6.04272 12.8617 6.09486 12.8425 6.1516C12.8234 6.20835 12.8162 6.26847 12.8216 6.32812V8.48344H11.1028V6.32812C11.1082 6.26847 11.101 6.20835 11.0818 6.1516C11.0627 6.09486 11.0319 6.04272 10.9915 5.99852C10.9511 5.95432 10.9019 5.91902 10.8471 5.89487C10.7923 5.87072 10.733 5.85825 10.6731 5.85825C10.6132 5.85825 10.554 5.87072 10.4992 5.89487C10.4444 5.91902 10.3952 5.95432 10.3548 5.99852C10.3143 6.04272 10.2836 6.09486 10.2644 6.1516C10.2452 6.20835 10.2381 6.26847 10.2434 6.32812V8.48344H7.77188C7.65746 8.48344 7.54773 8.52889 7.46682 8.60979C7.38592 8.6907 7.34047 8.80043 7.34047 8.91484V15.0027C7.34001 15.0596 7.35084 15.1161 7.37232 15.1688C7.39379 15.2215 7.4255 15.2695 7.4656 15.3099C7.50571 15.3504 7.55342 15.3824 7.60599 15.4043C7.65855 15.4262 7.71493 15.4375 7.77188 15.4375H10.2314V17.653C10.241 17.7603 10.2904 17.8601 10.37 17.9329C10.4495 18.0056 10.5533 18.0459 10.6611 18.0459C10.7688 18.0459 10.8727 18.0056 10.9522 17.9329C11.0317 17.8601 11.0812 17.7603 11.0908 17.653V15.4375H12.8095V17.653C12.8191 17.7603 12.8686 17.8601 12.9481 17.9329C13.0276 18.0056 13.1315 18.0459 13.2392 18.0459C13.347 18.0459 13.4508 18.0056 13.5303 17.9329C13.6099 17.8601 13.6593 17.7603 13.6689 17.653V15.4375H16.1662C16.2804 15.437 16.3897 15.3914 16.4702 15.3105C16.5507 15.2297 16.5959 15.1202 16.5959 15.0061V11.8453C16.5962 11.7887 16.5852 11.7327 16.5637 11.6804C16.5422 11.628 16.5106 11.5804 16.4707 11.5404C16.4308 11.5003 16.3833 11.4685 16.3311 11.4468C16.2788 11.4251 16.2228 11.4139 16.1662 11.4139H10.6748C10.5675 11.4235 10.4677 11.4729 10.395 11.5525C10.3222 11.632 10.2819 11.7358 10.2819 11.8436C10.2819 11.9513 10.3222 12.0552 10.395 12.1347C10.4677 12.2142 10.5675 12.2637 10.6748 12.2733H15.7348V14.5781H8.20156V9.34625H16.1662Z" fill="black"/>
</svg>
