<svg xmlns="http://www.w3.org/2000/svg"
     width="24"
     height="24"
     viewBox="0 0 24 24"
     fill="none">
    <path d="M16.9378 8.76345C16.5868 8.56293 16.1357 8.56293 15.7346 8.76345L12.9273 10.4178L11.0224 11.4705L8.26518 13.1248C7.91426 13.3253 7.46309 13.3253 7.06204 13.1248L4.90643 11.8214C4.55552 11.6209 4.30486 11.2198 4.30486 10.7687V8.26215C4.30486 7.8611 4.50539 7.46006 4.90643 7.20941L7.06204 5.95614C7.41296 5.75562 7.86413 5.75562 8.26518 5.95614L10.4208 7.25954C10.7717 7.46006 11.0224 7.8611 11.0224 8.31228V9.96659L12.9273 8.86371V7.15927C12.9273 6.75823 12.7268 6.35719 12.3258 6.10653L8.31531 3.7504C7.96439 3.54988 7.51322 3.54988 7.11217 3.7504L3.00147 6.15666C2.60042 6.35719 2.3999 6.75823 2.3999 7.15927V11.8715C2.3999 12.2726 2.60042 12.6736 3.00147 12.9243L7.06204 15.2804C7.41296 15.4809 7.86413 15.4809 8.26518 15.2804L11.0224 13.6762L12.9273 12.5734L15.6845 10.9692C16.0354 10.7687 16.4866 10.7687 16.8876 10.9692L19.0432 12.2225C19.3942 12.423 19.6448 12.824 19.6448 13.2752V15.7817C19.6448 16.1828 19.4443 16.5838 19.0432 16.8345L16.9378 18.0877C16.5868 18.2883 16.1357 18.2883 15.7346 18.0877L13.579 16.8345C13.2281 16.6339 12.9774 16.2329 12.9774 15.7817V14.1776L11.0725 15.2804V16.9347C11.0725 17.3358 11.273 17.7368 11.6741 17.9875L15.7346 20.3436C16.0855 20.5441 16.5367 20.5441 16.9378 20.3436L20.9983 17.9875C21.3493 17.787 21.5999 17.3859 21.5999 16.9347V12.1723C21.5999 11.7713 21.3994 11.3702 20.9983 11.1196L16.9378 8.76345Z" fill="#8247E5"/>
</svg>
