<svg xmlns="http://www.w3.org/2000/svg" width="100%" height="100%" viewBox="0 0 24 24" fill="none">
    <path fill-rule="evenodd" clip-rule="evenodd" d="M5.51929 4.6419C5.63997 4.52576 5.79927 4.45801 5.9634 4.45801H21.2851C21.5651 4.45801 21.7051 4.79676 21.5072 4.99517L18.4805 8.02943C18.3646 8.14557 18.2053 8.21332 18.0364 8.21332H2.71465C2.43467 8.21332 2.29468 7.87457 2.49259 7.67616L5.51929 4.6419ZM5.51931 15.9708C5.63516 15.8546 5.79446 15.7869 5.96342 15.7869H21.2852C21.5651 15.7869 21.7051 16.1256 21.5072 16.324L18.4805 19.3583C18.3647 19.4744 18.2054 19.5422 18.0364 19.5422H2.71467C2.43469 19.5422 2.2947 19.2034 2.49261 19.005L5.51931 15.9708ZM18.0364 10.0862C18.2054 10.0862 18.3647 10.1539 18.4805 10.2701L21.5072 13.3043C21.7051 13.5027 21.5651 13.8415 21.2852 13.8415H5.96342C5.79446 13.8415 5.63516 13.7737 5.51931 13.6576L2.49261 10.6233C2.2947 10.4249 2.43469 10.0862 2.71467 10.0862H18.0364Z" fill="url(#paint0_linear_203_47191)"/>
    <defs>
        <linearGradient id="paint0_linear_203_47191" x1="17.4884" y1="1.42435" x2="6.84293" y2="21.764" gradientUnits="userSpaceOnUse">
            <stop stop-color="#00FFA3"/>
            <stop offset="1" stop-color="#DC1FFF"/>
        </linearGradient>
    </defs>
</svg>
