<svg xmlns="http://www.w3.org/2000/svg"
     width="24"
     height="24"
     viewBox="0 0 24 24"
     fill="currentColor">
    <path d="M1 15.8121C1 16.0851 1.09897 16.2915 1.29689 16.4314C1.49481 16.5713 1.70638 16.6208 1.9316 16.5799C2.14316 16.5389 2.2916 16.4639 2.37694 16.3547C2.46224 16.2455 2.50491 16.0646 2.50491 15.8121V12.8433C2.50491 12.6317 2.43155 12.4525 2.2848 12.3058C2.13809 12.1591 1.95894 12.0857 1.74735 12.0857C1.5426 12.0857 1.36686 12.1591 1.22012 12.3058C1.07338 12.4525 1 12.6317 1 12.8433V15.8121ZM3.35458 17.0815C3.35458 17.2795 3.42454 17.4279 3.56445 17.5269C3.70437 17.6258 3.88353 17.6753 4.10191 17.6753C4.32712 17.6753 4.50968 17.6258 4.6496 17.5269C4.7895 17.4279 4.85947 17.2795 4.85947 17.0815V10.1611C4.85947 9.95635 4.78608 9.78059 4.63937 9.63387C4.49263 9.48716 4.31348 9.41377 4.10191 9.41377C3.89716 9.41377 3.7214 9.48716 3.57469 9.63387C3.42794 9.78062 3.35458 9.95635 3.35458 10.1611V17.0815ZM5.69893 17.4091C5.69893 17.607 5.77059 17.7555 5.91391 17.8544C6.05723 17.9534 6.2415 18.0029 6.46675 18.0029C6.68513 18.0029 6.86428 17.9534 7.00418 17.8544C7.1441 17.7555 7.21407 17.607 7.21407 17.4091V11.0927C7.21407 10.8811 7.14069 10.7002 6.99397 10.5501C6.84723 10.4 6.6715 10.3249 6.46675 10.3249C6.25516 10.3249 6.07431 10.4 5.92417 10.5501C5.77403 10.7002 5.69895 10.8811 5.69895 11.0927V17.4091H5.69893ZM8.05351 17.4398C8.05351 17.8152 8.30603 18.0029 8.81107 18.0029C9.3161 18.0029 9.56861 17.8152 9.56861 17.4398V7.20251C9.56861 6.62921 9.39458 6.30504 9.04651 6.22996C8.82129 6.17535 8.59946 6.24019 8.38108 6.42446C8.16269 6.60873 8.05349 6.86807 8.05349 7.2025V17.4398H8.05351ZM10.4491 17.7367V6.5985C10.4491 6.24361 10.5548 6.03204 10.7664 5.96378C11.2237 5.85459 11.6775 5.79999 12.128 5.79999C13.1722 5.79999 14.1447 6.04568 15.0456 6.53708C15.9465 7.02847 16.6751 7.69901 17.2313 8.54871C17.7875 9.39843 18.11 10.3351 18.1987 11.3589C18.615 11.1814 19.0586 11.0927 19.5295 11.0927C20.485 11.0927 21.3023 11.4305 21.9814 12.1062C22.6604 12.7819 23 13.594 23 14.5427C23 15.4982 22.6604 16.3138 21.9814 16.9894C21.3023 17.6651 20.4884 18.0029 19.5398 18.0029L10.6333 17.9927C10.5718 17.9722 10.5258 17.9347 10.4951 17.8801C10.4644 17.8255 10.4491 17.7776 10.4491 17.7367Z"/>
</svg>
