<svg xmlns="http://www.w3.org/2000/svg"
     width="24"
     height="24"
     viewBox="0 0 24 24"
     fill="currentColor">
    <path d="M11.9999 2C6.47724 2 2 6.47712 2 11.9998C2 17.5231 6.47724 22 11.9999 22C17.5229 22 21.9999 17.5231 21.9999 11.9998C21.9999 6.47748 17.5232 2 11.9999 2ZM16.5859 16.4226C16.4063 16.7172 16.0225 16.8095 15.7288 16.63C13.3806 15.1948 10.4249 14.8706 6.94402 15.6658C6.60859 15.7427 6.27424 15.5324 6.19782 15.1971C6.12103 14.8617 6.33036 14.5273 6.66663 14.4509C10.4759 13.58 13.7434 13.9548 16.3791 15.5655C16.6729 15.7458 16.7662 16.1289 16.5859 16.4226ZM17.8098 13.7001C17.5837 14.0671 17.1039 14.1822 16.7374 13.9569C14.05 12.3049 9.95213 11.8264 6.77279 12.7915C6.36045 12.9161 5.92496 12.6837 5.79981 12.2721C5.67563 11.8598 5.90813 11.4251 6.31974 11.2997C9.95142 10.1978 14.4662 10.7315 17.553 12.6284C17.9196 12.8541 18.0355 13.334 17.8098 13.7001ZM17.9149 10.8648C14.6915 8.95051 9.37453 8.7745 6.2974 9.70842C5.80327 9.85828 5.28072 9.57933 5.13098 9.0852C4.98124 8.59084 5.25995 8.06865 5.75443 7.91842C9.28677 6.84611 15.1589 7.05328 18.8695 9.25608C19.3139 9.51986 19.4597 10.0939 19.1963 10.5377C18.9336 10.9822 18.3579 11.1287 17.9149 10.8648Z"/>
</svg>
