<svg xmlns="http://www.w3.org/2000/svg" width="24" height="24" viewBox="0 0 24 24" fill="none">
    <path fill-rule="evenodd" clip-rule="evenodd" d="M17.5941 19.9806L20.9882 3.65456C21.0756 3.23355 20.6619 2.88231 20.261 3.03736L1.34794 10.3335C0.881144 10.5133 0.885144 11.1742 1.35327 11.3496L5.96169 13.0695L7.74542 18.806C7.85958 19.1732 8.30885 19.3091 8.60694 19.0653L11.1758 16.9713C11.4451 16.7517 11.8286 16.7408 12.1099 16.9451L16.7432 20.3089C17.0621 20.5407 17.5141 20.366 17.5941 19.9806ZM7.4577 12.1539L16.4643 6.60683C16.626 6.50746 16.7926 6.72632 16.6535 6.85521L9.22055 13.7645C8.95922 14.0076 8.79077 14.3333 8.74296 14.6865L8.48989 16.5629C8.45617 16.8134 8.10443 16.8381 8.03516 16.5957L7.06139 13.1741C6.95002 12.7838 7.1125 12.3669 7.4577 12.1539Z" fill="white"/>
</svg>
