<svg xmlns="http://www.w3.org/2000/svg"
     width="24"
     height="24"
     viewBox="0 0 24 24"
     fill="currentColor">
    <path d="M14.4464 22.8C12.9051 22.8 11.7801 22.4287 11.0714 21.6862C10.4149 21.0577 10.0339 20.1948 10.0117 19.2862C10.0038 19.0102 10.0677 18.7368 10.1974 18.493C10.3183 18.2823 10.493 18.1075 10.7035 17.9864C10.9483 17.8644 11.2181 17.8008 11.4916 17.8008C11.7651 17.8008 12.0349 17.8644 12.2797 17.9864C12.4899 18.107 12.6637 18.282 12.783 18.493C12.9164 18.7356 12.9827 19.0094 12.9753 19.2862C12.989 19.6168 12.8942 19.9428 12.7053 20.2144C12.5478 20.4361 12.3227 20.6007 12.0638 20.6838C12.317 21.0062 12.6753 21.2295 13.0763 21.315C13.5249 21.4453 13.9895 21.5123 14.4566 21.514C15.0751 21.5194 15.6808 21.3383 16.1948 20.9943C16.728 20.6176 17.1256 20.0791 17.3287 19.4587C17.5863 18.7203 17.7119 17.9423 17.7 17.1604C17.7208 16.3452 17.5832 15.5337 17.295 14.7708C17.0782 14.1607 16.6666 13.6389 16.1239 13.2858C15.6194 12.9666 15.0337 12.7991 14.4367 12.8032C13.9164 12.8473 13.4148 13.0176 12.9753 13.2994L11.8916 13.8427V13.2994L16.7617 6.76611H10.0117V13.5458C9.99267 14.035 10.1221 14.5186 10.383 14.9329C10.5092 15.1134 10.6799 15.2583 10.8786 15.3535C11.0773 15.4487 11.2972 15.4909 11.517 15.4762C11.9231 15.468 12.3158 15.3296 12.6374 15.0813C13.0018 14.8142 13.319 14.488 13.5757 14.1161C13.5988 14.0509 13.6414 13.9943 13.6977 13.9542C13.7429 13.9151 13.8007 13.8935 13.8604 13.8934C13.9777 13.9041 14.0886 13.9513 14.1777 14.0283C14.2905 14.1544 14.3519 14.3182 14.3498 14.4873C14.3367 14.601 14.3164 14.7137 14.289 14.8248C14.0492 15.4052 13.6473 15.9042 13.1313 16.2621C12.6521 16.5864 12.0861 16.7583 11.5075 16.7554C10.046 16.7554 9.03362 16.4674 8.47018 15.8914C8.18058 15.573 7.95738 15.2001 7.81366 14.7944C7.66994 14.3887 7.60858 13.9585 7.63317 13.5288V6.76611H4.19995V5.50645H7.64917V2.63432L6.85947 1.84408V1.20001H9.151L10.0117 1.64557V5.50645L18.9283 5.47933L19.8161 6.37031L14.3485 11.8644C14.6789 11.7316 15.0267 11.6474 15.3812 11.6146C16.0829 11.6454 16.7675 11.8408 17.3796 12.1851C18.0884 12.522 18.6858 13.0551 19.1009 13.7212C19.4729 14.2851 19.7362 14.9135 19.8772 15.5741C19.9932 16.0952 20.0554 16.6268 20.0628 17.1605C20.0665 18.1792 19.8355 19.185 19.3879 20.1001C18.9633 20.9861 18.2489 21.7006 17.3628 22.1251C16.4558 22.5721 15.4576 22.8031 14.4464 22.8Z"/>
</svg>
