<svg xmlns="http://www.w3.org/2000/svg"
     width="24"
     height="24"
     viewBox="0 0 24 24"
     fill="currentColor">
    <path d="M12.4874 19.5883L7.97385 19.5057C6.51246 19.477 5.04744 19.5344 3.61471 19.2364C1.43519 18.7911 1.28079 16.608 1.11922 14.7767C0.896594 12.2022 0.982778 9.58097 1.4029 7.02795C1.64007 5.59544 2.57344 4.74065 4.01686 4.64763C8.88948 4.31006 13.7945 4.35007 18.6563 4.50756C19.1698 4.52199 19.6868 4.6009 20.1931 4.69073C22.6923 5.12881 22.7533 7.60281 22.9153 9.68545C23.0768 11.7896 23.0086 13.9045 22.6998 15.9943C22.4521 17.7246 21.978 19.1756 19.9776 19.3157C17.4712 19.4989 15.0223 19.6464 12.5089 19.5994C12.509 19.5883 12.4946 19.5883 12.4874 19.5883ZM9.83387 15.2076C11.7226 14.1232 13.5754 13.0568 15.4534 11.9796C13.5611 10.8951 11.7118 9.82872 9.83387 8.75153V15.2076Z"/>
</svg>
