<svg xmlns="http://www.w3.org/2000/svg"
     width="24"
     height="24"
     viewBox="0 0 24 24"
     fill="currentColor">
    <path d="M5.5 20C5.08333 20 4.72917 19.8542 4.4375 19.5625C4.14583 19.2708 4 18.9167 4 18.5C4 18.0833 4.14583 17.7292 4.4375 17.4375C4.72917 17.1458 5.08333 17 5.5 17C5.91667 17 6.27083 17.1458 6.5625 17.4375C6.85417 17.7292 7 18.0833 7 18.5C7 18.9167 6.85417 19.2708 6.5625 19.5625C6.27083 19.8542 5.91667 20 5.5 20ZM9.825 20C9.40833 20 9.05417 19.8542 8.7625 19.5625C8.47083 19.2708 8.325 18.9167 8.325 18.5C8.325 18.0833 8.47083 17.7292 8.7625 17.4375C9.05417 17.1458 9.40833 17 9.825 17C10.2417 17 10.5958 17.1458 10.8875 17.4375C11.1792 17.7292 11.325 18.0833 11.325 18.5C11.325 18.9167 11.1792 19.2708 10.8875 19.5625C10.5958 19.8542 10.2417 20 9.825 20ZM14.175 20C13.7583 20 13.4042 19.8542 13.1125 19.5625C12.8208 19.2708 12.675 18.9167 12.675 18.5C12.675 18.0833 12.8208 17.7292 13.1125 17.4375C13.4042 17.1458 13.7583 17 14.175 17C14.5917 17 14.9458 17.1458 15.2375 17.4375C15.5292 17.7292 15.675 18.0833 15.675 18.5C15.675 18.9167 15.5292 19.2708 15.2375 19.5625C14.9458 19.8542 14.5917 20 14.175 20ZM18.5 20C18.0833 20 17.7292 19.8542 17.4375 19.5625C17.1458 19.2708 17 18.9167 17 18.5C17 18.0833 17.1458 17.7292 17.4375 17.4375C17.7292 17.1458 18.0833 17 18.5 17C18.9167 17 19.2708 17.1458 19.5625 17.4375C19.8542 17.7292 20 18.0833 20 18.5C20 18.9167 19.8542 19.2708 19.5625 19.5625C19.2708 19.8542 18.9167 20 18.5 20ZM5.5 15.675C5.08333 15.675 4.72917 15.5292 4.4375 15.2375C4.14583 14.9458 4 14.5917 4 14.175C4 13.7583 4.14583 13.4042 4.4375 13.1125C4.72917 12.8208 5.08333 12.675 5.5 12.675C5.91667 12.675 6.27083 12.8208 6.5625 13.1125C6.85417 13.4042 7 13.7583 7 14.175C7 14.5917 6.85417 14.9458 6.5625 15.2375C6.27083 15.5292 5.91667 15.675 5.5 15.675ZM9.825 15.675C9.40833 15.675 9.05417 15.5292 8.7625 15.2375C8.47083 14.9458 8.325 14.5917 8.325 14.175C8.325 13.7583 8.47083 13.4042 8.7625 13.1125C9.05417 12.8208 9.40833 12.675 9.825 12.675C10.2417 12.675 10.5958 12.8208 10.8875 13.1125C11.1792 13.4042 11.325 13.7583 11.325 14.175C11.325 14.5917 11.1792 14.9458 10.8875 15.2375C10.5958 15.5292 10.2417 15.675 9.825 15.675ZM14.175 15.675C13.7583 15.675 13.4042 15.5292 13.1125 15.2375C12.8208 14.9458 12.675 14.5917 12.675 14.175C12.675 13.7583 12.8208 13.4042 13.1125 13.1125C13.4042 12.8208 13.7583 12.675 14.175 12.675C14.5917 12.675 14.9458 12.8208 15.2375 13.1125C15.5292 13.4042 15.675 13.7583 15.675 14.175C15.675 14.5917 15.5292 14.9458 15.2375 15.2375C14.9458 15.5292 14.5917 15.675 14.175 15.675ZM18.5 15.675C18.0833 15.675 17.7292 15.5292 17.4375 15.2375C17.1458 14.9458 17 14.5917 17 14.175C17 13.7583 17.1458 13.4042 17.4375 13.1125C17.7292 12.8208 18.0833 12.675 18.5 12.675C18.9167 12.675 19.2708 12.8208 19.5625 13.1125C19.8542 13.4042 20 13.7583 20 14.175C20 14.5917 19.8542 14.9458 19.5625 15.2375C19.2708 15.5292 18.9167 15.675 18.5 15.675ZM5.5 11.325C5.08333 11.325 4.72917 11.1792 4.4375 10.8875C4.14583 10.5958 4 10.2417 4 9.825C4 9.40833 4.14583 9.05417 4.4375 8.7625C4.72917 8.47083 5.08333 8.325 5.5 8.325C5.91667 8.325 6.27083 8.47083 6.5625 8.7625C6.85417 9.05417 7 9.40833 7 9.825C7 10.2417 6.85417 10.5958 6.5625 10.8875C6.27083 11.1792 5.91667 11.325 5.5 11.325ZM9.825 11.325C9.40833 11.325 9.05417 11.1792 8.7625 10.8875C8.47083 10.5958 8.325 10.2417 8.325 9.825C8.325 9.40833 8.47083 9.05417 8.7625 8.7625C9.05417 8.47083 9.40833 8.325 9.825 8.325C10.2417 8.325 10.5958 8.47083 10.8875 8.7625C11.1792 9.05417 11.325 9.40833 11.325 9.825C11.325 10.2417 11.1792 10.5958 10.8875 10.8875C10.5958 11.1792 10.2417 11.325 9.825 11.325ZM14.175 11.325C13.7583 11.325 13.4042 11.1792 13.1125 10.8875C12.8208 10.5958 12.675 10.2417 12.675 9.825C12.675 9.40833 12.8208 9.05417 13.1125 8.7625C13.4042 8.47083 13.7583 8.325 14.175 8.325C14.5917 8.325 14.9458 8.47083 15.2375 8.7625C15.5292 9.05417 15.675 9.40833 15.675 9.825C15.675 10.2417 15.5292 10.5958 15.2375 10.8875C14.9458 11.1792 14.5917 11.325 14.175 11.325ZM18.5 11.325C18.0833 11.325 17.7292 11.1792 17.4375 10.8875C17.1458 10.5958 17 10.2417 17 9.825C17 9.40833 17.1458 9.05417 17.4375 8.7625C17.7292 8.47083 18.0833 8.325 18.5 8.325C18.9167 8.325 19.2708 8.47083 19.5625 8.7625C19.8542 9.05417 20 9.40833 20 9.825C20 10.2417 19.8542 10.5958 19.5625 10.8875C19.2708 11.1792 18.9167 11.325 18.5 11.325ZM5.5 7C5.08333 7 4.72917 6.85417 4.4375 6.5625C4.14583 6.27083 4 5.91667 4 5.5C4 5.08333 4.14583 4.72917 4.4375 4.4375C4.72917 4.14583 5.08333 4 5.5 4C5.91667 4 6.27083 4.14583 6.5625 4.4375C6.85417 4.72917 7 5.08333 7 5.5C7 5.91667 6.85417 6.27083 6.5625 6.5625C6.27083 6.85417 5.91667 7 5.5 7ZM9.825 7C9.40833 7 9.05417 6.85417 8.7625 6.5625C8.47083 6.27083 8.325 5.91667 8.325 5.5C8.325 5.08333 8.47083 4.72917 8.7625 4.4375C9.05417 4.14583 9.40833 4 9.825 4C10.2417 4 10.5958 4.14583 10.8875 4.4375C11.1792 4.72917 11.325 5.08333 11.325 5.5C11.325 5.91667 11.1792 6.27083 10.8875 6.5625C10.5958 6.85417 10.2417 7 9.825 7ZM14.175 7C13.7583 7 13.4042 6.85417 13.1125 6.5625C12.8208 6.27083 12.675 5.91667 12.675 5.5C12.675 5.08333 12.8208 4.72917 13.1125 4.4375C13.4042 4.14583 13.7583 4 14.175 4C14.5917 4 14.9458 4.14583 15.2375 4.4375C15.5292 4.72917 15.675 5.08333 15.675 5.5C15.675 5.91667 15.5292 6.27083 15.2375 6.5625C14.9458 6.85417 14.5917 7 14.175 7ZM18.5 7C18.0833 7 17.7292 6.85417 17.4375 6.5625C17.1458 6.27083 17 5.91667 17 5.5C17 5.08333 17.1458 4.72917 17.4375 4.4375C17.7292 4.14583 18.0833 4 18.5 4C18.9167 4 19.2708 4.14583 19.5625 4.4375C19.8542 4.72917 20 5.08333 20 5.5C20 5.91667 19.8542 6.27083 19.5625 6.5625C19.2708 6.85417 18.9167 7 18.5 7Z"/>
</svg>
