<svg xmlns="http://www.w3.org/2000/svg"
     width="24"
     height="24"
     viewBox="0 0 24 24"
     fill="currentColor">
    <path d="M12 13C10.9 13 9.95833 12.6083 9.175 11.825C8.39167 11.0417 8 10.1 8 9V5.5C8 5.08333 8.14583 4.72917 8.4375 4.4375C8.72917 4.14583 9.08333 4 9.5 4C9.75 4 9.9875 4.05833 10.2125 4.175C10.4375 4.29167 10.6167 4.45833 10.75 4.675C10.8833 4.45833 11.0625 4.29167 11.2875 4.175C11.5125 4.05833 11.75 4 12 4C12.25 4 12.4875 4.05833 12.7125 4.175C12.9375 4.29167 13.1167 4.45833 13.25 4.675C13.3833 4.45833 13.5625 4.29167 13.7875 4.175C14.0125 4.05833 14.25 4 14.5 4C14.9167 4 15.2708 4.14583 15.5625 4.4375C15.8542 4.72917 16 5.08333 16 5.5V9C16 10.1 15.6083 11.0417 14.825 11.825C14.0417 12.6083 13.1 13 12 13ZM4 21V18.2C4 17.6333 4.14583 17.1125 4.4375 16.6375C4.72917 16.1625 5.11667 15.8 5.6 15.55C6.63333 15.0333 7.68333 14.6458 8.75 14.3875C9.81667 14.1292 10.9 14 12 14C13.1 14 14.1833 14.1292 15.25 14.3875C16.3167 14.6458 17.3667 15.0333 18.4 15.55C18.8833 15.8 19.2708 16.1625 19.5625 16.6375C19.8542 17.1125 20 17.6333 20 18.2V21H4Z"/>
</svg>
